<svg xmlns="http://www.w3.org/2000/svg" viewBox="420 330 200 255" fill="currentColor">
  <!-- Ring + petals -->
  <path d="M572.961670,498.992615 C563.343567,506.808197 552.707520,511.665253 541.053650,514.537964 C536.821350,515.581238 535.286987,514.013367 534.829773,509.993866 C531.944824,484.634033 549.063538,461.568329 574.301697,457.832397 C580.214722,456.957123 582.645508,454.617065 584.238037,449.066864 C596.275452,407.115692 569.273132,365.249054 525.999268,360.619690 C485.773010,356.316345 456.563049,385.328583 451.197571,417.254974 C449.246399,428.865143 450.453857,440.089691 453.473907,451.299774 C454.441437,454.891113 456.099945,456.624023 460.207031,457.167358 C484.087402,460.326569 499.169403,475.477173 502.894745,499.276154 C503.583771,503.677887 502.632568,507.906464 502.115387,512.180237 C501.745667,515.235779 499.549225,514.970520 497.186432,514.523621 C483.204224,511.878876 471.061951,505.403076 460.641724,496.004303 C440.932434,478.226959 430.718445,455.901825 430.780121,429.260834 C430.884521,384.172333 465.641357,346.089630 510.505463,341.590546 C556.968689,336.931091 599.133118,370.171570 605.387512,416.699127 C609.850342,449.898865 598.618469,477.154968 572.961670,498.992615z"/>
  <!-- Dome -->
  <path d="M471.377380,442.806335 C467.004120,435.298767 467.772339,427.409302 469.200867,419.822296 C473.634979,396.272583 491.839935,379.523407 515.679810,378.132843 C550.755188,376.086945 575.052673,408.989014 568.016602,438.511261 C567.448914,440.893311 566.723206,442.636932 563.790833,443.228424 C544.932312,447.032471 531.570251,458.221771 522.210999,474.675354 C521.265930,476.336792 520.969177,478.536255 518.101440,479.687469 C507.946777,460.967590 493.891632,446.741821 471.377380,442.806335z"/>
  <!-- Base band 1 -->
  <path d="M541.770325,535.003052 C526.669189,535.000061 512.036438,535.028137 497.403900,534.980164 C488.140503,534.949768 488.145569,534.897461 485.565338,526.064453 C485.244995,524.967957 484.839294,523.896362 483.964142,521.307495 C507.099487,521.474243 529.551697,521.955139 552.036255,520.929810 C551.738953,531.356140 549.135254,534.783142 541.770325,535.003052z"/>
  <!-- Base band 2 -->
  <path d="M536.877197,555.129395 C524.270447,555.104919 512.144653,555.081604 500.018921,555.052490 C491.088562,555.031067 487.990051,551.778809 487.947632,542.312805 C489.777924,540.896851 492.010620,541.140503 494.110687,541.131409 C511.053009,541.058167 527.996460,541.142212 544.937561,540.976013 C549.181091,540.934448 550.135681,542.517151 549.148010,546.395569 C547.189514,554.086426 546.036133,555.042236 536.877197,555.129395z"/>
  <!-- Base tip -->
  <path d="M521.340210,576.546021 C511.397003,578.778870 498.826233,570.048340 497.987183,561.661377 C511.777618,560.327148 525.530823,561.069336 539.320251,561.162720 C538.918091,568.714966 531.555969,574.859802 521.340210,576.546021z"/>
</svg>
